<?xml version="1.0" standalone="no"?><!DOCTYPE svg PUBLIC "-//W3C//DTD SVG 1.1//EN" "http://www.w3.org/Graphics/SVG/1.1/DTD/svg11.dtd"><svg t="1740986603306" class="icon" viewBox="0 0 1027 1024" version="1.1" xmlns="http://www.w3.org/2000/svg" p-id="2712" width="128.375" height="128" xmlns:xlink="http://www.w3.org/1999/xlink"><path d="M512 1024H17.066667c-10.24 0-17.066667-6.826667-17.066667-17.066667 0-116.053333 71.68-215.04 184.32-256l20.48-3.413333c10.24-3.413333 17.066667 3.413333 20.48 13.653333 3.413333 10.24-3.413333 17.066667-13.653333 20.48l-20.48 3.413334c-88.746667 30.72-150.186667 109.226667-157.013334 204.8h477.866667c10.24 0 17.066667 6.826667 17.066667 17.066666s-6.826667 17.066667-17.066667 17.066667zM512 750.933333c-109.226667 0-211.626667-81.92-245.76-204.8-34.133333 0-61.44-44.373333-61.44-102.4s27.306667-102.4 61.44-102.4h10.24c10.24 0 17.066667 10.24 17.066667 17.066667-3.413333 10.24-10.24 17.066667-20.48 17.066667h-10.24c-6.826667 0-23.893333 27.306667-23.893334 68.266666s17.066667 68.266667 27.306667 68.266667h3.413333c3.413333-3.413333 10.24-3.413333 17.066667 0s10.24 6.826667 10.24 10.24c23.893333 112.64 116.053333 194.56 215.04 194.56s191.146667-81.92 218.453333-194.56c0-6.826667 3.413333-10.24 10.24-10.24 3.413333-3.413333 10.24 0 17.066667 0h3.413333c10.24 0 27.306667-27.306667 27.306667-68.266667s-23.893333-68.266667-34.133333-68.266666h-10.24c-10.24 0-17.066667-6.826667-17.066667-17.066667s6.826667-17.066667 17.066667-17.066667h10.24c34.133333 0 68.266667 47.786667 68.266666 102.4 0 58.026667-27.306667 102.4-61.44 102.4-37.546667 122.88-139.946667 204.8-249.173333 204.8z" fill="#ffffff" p-id="2713"></path><path d="M494.933333 1024h-3.413333-3.413333-3.413334l-170.666666-136.533333c-3.413333-6.826667-6.826667-10.24-6.826667-17.066667v-23.893333l-58.026667-30.72-3.413333-3.413334-102.4-102.4c-6.826667-3.413333-6.826667-10.24-6.826667-13.653333s6.826667-10.24 10.24-13.653333l119.466667-34.133334c6.826667-3.413333 13.653333 0 20.48 6.826667l208.213333 320.853333 225.28-320.853333c3.413333-6.826667 10.24-10.24 17.066667-6.826667l136.533333 34.133334c6.826667 0 10.24 6.826667 13.653334 13.653333 0 6.826667 0 13.653333-3.413334 17.066667l-102.4 102.4-3.413333 3.413333-61.44 27.306667v23.893333c0 6.826667-3.413333 10.24-6.826667 13.653333l-204.8 136.533334h-3.413333c0 3.413333-3.413333 3.413333-6.826667 3.413333 3.413333 0 3.413333 0 0 0 3.413333 0 3.413333 0 0 0 3.413333 0 3.413333 0 0 0 3.413333 0 3.413333 0 0 0 3.413333 0 0 0 0 0z m245.76-337.92l-180.906666 256 122.88-81.92v-23.893333c0-6.826667 3.413333-13.653333 10.24-13.653334l64.853333-34.133333 78.506667-78.506667-95.573334-23.893333zM341.333333 863.573333l81.92 64.853334-157.013333-242.346667-78.506667 23.893333 78.506667 78.506667 64.853333 34.133333c6.826667 3.413333 10.24 10.24 10.24 13.653334v27.306666z" fill="#ffffff" p-id="2714"></path><path d="M1006.933333 1024H512c-10.24 0-17.066667-6.826667-17.066667-17.066667s6.826667-17.066667 17.066667-17.066666h477.866667c-6.826667-92.16-71.68-174.08-167.253334-204.8l-17.066666-3.413334c-10.24-3.413333-13.653333-10.24-13.653334-20.48 3.413333-10.24 10.24-13.653333 20.48-13.653333l20.48 3.413333c116.053333 40.96 194.56 143.36 194.56 256-3.413333 10.24-10.24 17.066667-20.48 17.066667zM392.533333 512C334.506667 512 307.2 467.626667 307.2 426.666667c0-47.786667 10.24-85.333333 119.466667-85.333334 34.133333 0 54.613333 6.826667 68.266666 20.48 17.066667 17.066667 17.066667 40.96 17.066667 61.44v3.413334c0 47.786667-64.853333 85.333333-119.466667 85.333333z m34.133334-136.533333c-85.333333 0-85.333333 20.48-85.333334 51.2 0 13.653333 3.413333 51.2 51.2 51.2 40.96 0 85.333333-30.72 85.333334-51.2v-3.413334c0-17.066667 0-30.72-6.826667-37.546666-6.826667-6.826667-20.48-10.24-44.373333-10.24zM631.466667 512c-54.613333 0-119.466667-37.546667-119.466667-85.333333v-3.413334c0-20.48 0-44.373333 17.066667-61.44 13.653333-13.653333 34.133333-20.48 68.266666-20.48 109.226667 0 119.466667 37.546667 119.466667 85.333334 0 40.96-27.306667 85.333333-85.333333 85.333333z m-34.133334-136.533333c-23.893333 0-37.546667 3.413333-44.373333 10.24-6.826667 6.826667-6.826667 20.48-6.826667 37.546666v3.413334c0 20.48 44.373333 51.2 85.333334 51.2 47.786667 0 51.2-37.546667 51.2-51.2 0-30.72 0-51.2-85.333334-51.2z" fill="#ffffff" p-id="2715"></path><path d="M512 375.466667c-153.6 0-409.6-20.48-409.6-102.4 0-37.546667 51.2-68.266667 150.186667-85.333334 10.24 0 17.066667 3.413333 20.48 13.653334 0 10.24-3.413333 17.066667-13.653334 20.48C157.013333 238.933333 136.533333 266.24 136.533333 273.066667c0 23.893333 129.706667 68.266667 375.466667 68.266666s375.466667-44.373333 375.466667-68.266666c0 0-10.24-23.893333-146.773334-47.786667-10.24 0-17.066667-10.24-13.653333-20.48 0-10.24 10.24-17.066667 20.48-13.653333C901.12 218.453333 921.6 249.173333 921.6 273.066667c0 81.92-256 102.4-409.6 102.4z" fill="#ffffff" p-id="2716"></path><path d="M750.933333 273.066667c-6.826667 0-13.653333-6.826667-17.066666-13.653334-23.893333-122.88-95.573333-225.28-136.533334-225.28-44.373333 0-71.68 27.306667-71.68 27.306667-6.826667 6.826667-17.066667 6.826667-23.893333 0 0 0-27.306667-27.306667-71.68-27.306667S300.373333 136.533333 273.066667 259.413333c-3.413333 10.24-10.24 13.653333-20.48 13.653334-10.24-3.413333-13.653333-10.24-13.653334-20.48 27.306667-126.293333 119.466667-252.586667 187.733334-252.586667 40.96 0 68.266667 17.066667 85.333333 27.306667 17.066667-10.24 44.373333-27.306667 85.333333-27.306667 68.266667 0 143.36 129.706667 170.666667 252.586667 3.413333 10.24-3.413333 17.066667-13.653333 20.48H750.933333z" fill="#ffffff" p-id="2717"></path><path d="M494.933333 238.933333C334.506667 238.933333 279.893333 184.32 276.48 180.906667c-6.826667-6.826667-3.413333-17.066667 3.413333-23.893334 6.826667-6.826667 17.066667-6.826667 23.893334 0 0 0 47.786667 44.373333 191.146666 44.373334 146.773333 0 211.626667-47.786667 211.626667-47.786667 6.826667-6.826667 17.066667-3.413333 23.893333 3.413333 6.826667 6.826667 3.413333 17.066667-3.413333 23.893334-3.413333 6.826667-71.68 58.026667-232.106667 58.026666z" fill="#ffffff" p-id="2718"></path></svg>